<mxfile host="app.diagrams.net" modified="2023-07-08T14:34:58.994Z" agent="Mozilla/5.0 (Windows NT 10.0; Win64; x64) AppleWebKit/537.36 (KHTML, like Gecko) Chrome/113.0.0.0 Safari/537.36" etag="6VSMArFL2UHP7GlkQhY8" version="21.3.2" type="device">
  <diagram name="Page-1" id="3DIKzXTSYoJ7PkAsxvty">
    <mxGraphModel dx="1466" dy="1728" grid="1" gridSize="10" guides="1" tooltips="1" connect="1" arrows="1" fold="1" page="1" pageScale="1" pageWidth="850" pageHeight="1100" math="0" shadow="0">
      <root>
        <mxCell id="0" />
        <mxCell id="1" parent="0" />
        <mxCell id="aQ3WHBYTqEkDXHbV2RrZ-1" value="INITIAL" style="ellipse;whiteSpace=wrap;html=1;aspect=fixed;" parent="1" vertex="1">
          <mxGeometry x="210" y="150" width="100" height="100" as="geometry" />
        </mxCell>
        <mxCell id="aQ3WHBYTqEkDXHbV2RrZ-2" value="PENDING" style="ellipse;whiteSpace=wrap;html=1;aspect=fixed;" parent="1" vertex="1">
          <mxGeometry x="440" y="330" width="90" height="90" as="geometry" />
        </mxCell>
        <mxCell id="aQ3WHBYTqEkDXHbV2RrZ-3" value="" style="endArrow=classic;html=1;rounded=0;entryX=0.07;entryY=0.272;entryDx=0;entryDy=0;entryPerimeter=0;exitX=1;exitY=0.5;exitDx=0;exitDy=0;" parent="1" source="aQ3WHBYTqEkDXHbV2RrZ-1" target="aQ3WHBYTqEkDXHbV2RrZ-2" edge="1">
          <mxGeometry width="50" height="50" relative="1" as="geometry">
            <mxPoint x="300" y="250" as="sourcePoint" />
            <mxPoint x="350" y="200" as="targetPoint" />
          </mxGeometry>
        </mxCell>
        <mxCell id="aQ3WHBYTqEkDXHbV2RrZ-4" value="create room" style="text;html=1;strokeColor=none;fillColor=none;align=center;verticalAlign=middle;whiteSpace=wrap;rounded=0;rotation=50;" parent="1" vertex="1">
          <mxGeometry x="340" y="250.00000000000003" width="100" height="20" as="geometry" />
        </mxCell>
        <mxCell id="aQ3WHBYTqEkDXHbV2RrZ-5" value="" style="endArrow=classic;html=1;rounded=0;entryX=0.958;entryY=0.691;entryDx=0;entryDy=0;entryPerimeter=0;exitX=-0.011;exitY=0.455;exitDx=0;exitDy=0;exitPerimeter=0;" parent="1" source="aQ3WHBYTqEkDXHbV2RrZ-2" target="aQ3WHBYTqEkDXHbV2RrZ-1" edge="1">
          <mxGeometry width="50" height="50" relative="1" as="geometry">
            <mxPoint x="360" y="420" as="sourcePoint" />
            <mxPoint x="410" y="370" as="targetPoint" />
          </mxGeometry>
        </mxCell>
        <mxCell id="aQ3WHBYTqEkDXHbV2RrZ-6" value="owner leave room" style="text;html=1;strokeColor=none;fillColor=none;align=center;verticalAlign=middle;whiteSpace=wrap;rounded=0;rotation=50;" parent="1" vertex="1">
          <mxGeometry x="300" y="280" width="100" height="20" as="geometry" />
        </mxCell>
        <mxCell id="aQ3WHBYTqEkDXHbV2RrZ-8" value="FULL" style="ellipse;whiteSpace=wrap;html=1;aspect=fixed;" parent="1" vertex="1">
          <mxGeometry x="700" y="330" width="90" height="90" as="geometry" />
        </mxCell>
        <mxCell id="aQ3WHBYTqEkDXHbV2RrZ-9" value="" style="endArrow=classic;html=1;rounded=0;entryX=0.015;entryY=0.333;entryDx=0;entryDy=0;entryPerimeter=0;exitX=0.996;exitY=0.33;exitDx=0;exitDy=0;exitPerimeter=0;" parent="1" source="aQ3WHBYTqEkDXHbV2RrZ-2" target="aQ3WHBYTqEkDXHbV2RrZ-8" edge="1">
          <mxGeometry width="50" height="50" relative="1" as="geometry">
            <mxPoint x="550" y="350" as="sourcePoint" />
            <mxPoint x="600" y="300" as="targetPoint" />
          </mxGeometry>
        </mxCell>
        <mxCell id="aQ3WHBYTqEkDXHbV2RrZ-10" value="other user join room&amp;nbsp;" style="text;html=1;strokeColor=none;fillColor=none;align=center;verticalAlign=middle;whiteSpace=wrap;rounded=0;" parent="1" vertex="1">
          <mxGeometry x="550" y="340" width="120" height="13.33" as="geometry" />
        </mxCell>
        <mxCell id="aQ3WHBYTqEkDXHbV2RrZ-11" value="" style="endArrow=classic;html=1;rounded=0;" parent="1" edge="1">
          <mxGeometry width="50" height="50" relative="1" as="geometry">
            <mxPoint x="700" y="382" as="sourcePoint" />
            <mxPoint x="530" y="382" as="targetPoint" />
          </mxGeometry>
        </mxCell>
        <mxCell id="aQ3WHBYTqEkDXHbV2RrZ-12" value="other user leave room&amp;nbsp;" style="text;html=1;strokeColor=none;fillColor=none;align=center;verticalAlign=middle;whiteSpace=wrap;rounded=0;" parent="1" vertex="1">
          <mxGeometry x="550" y="390" width="130" height="13.33" as="geometry" />
        </mxCell>
        <mxCell id="aQ3WHBYTqEkDXHbV2RrZ-13" value="STARTED" style="ellipse;whiteSpace=wrap;html=1;aspect=fixed;" parent="1" vertex="1">
          <mxGeometry x="1000" y="330" width="90" height="90" as="geometry" />
        </mxCell>
        <mxCell id="aQ3WHBYTqEkDXHbV2RrZ-14" value="" style="endArrow=classic;html=1;rounded=0;entryX=0.005;entryY=0.377;entryDx=0;entryDy=0;entryPerimeter=0;exitX=1.008;exitY=0.377;exitDx=0;exitDy=0;exitPerimeter=0;" parent="1" source="aQ3WHBYTqEkDXHbV2RrZ-8" target="aQ3WHBYTqEkDXHbV2RrZ-13" edge="1">
          <mxGeometry width="50" height="50" relative="1" as="geometry">
            <mxPoint x="810" y="370" as="sourcePoint" />
            <mxPoint x="860" y="320" as="targetPoint" />
          </mxGeometry>
        </mxCell>
        <mxCell id="aQ3WHBYTqEkDXHbV2RrZ-15" value="owner start room" style="text;html=1;strokeColor=none;fillColor=none;align=center;verticalAlign=middle;whiteSpace=wrap;rounded=0;" parent="1" vertex="1">
          <mxGeometry x="840" y="335.66" width="110" height="22" as="geometry" />
        </mxCell>
        <mxCell id="aQ3WHBYTqEkDXHbV2RrZ-16" value="" style="endArrow=classic;html=1;rounded=0;exitX=0;exitY=0.5;exitDx=0;exitDy=0;entryX=1.008;entryY=0.539;entryDx=0;entryDy=0;entryPerimeter=0;" parent="1" source="aQ3WHBYTqEkDXHbV2RrZ-13" target="aQ3WHBYTqEkDXHbV2RrZ-13" edge="1">
          <mxGeometry width="50" height="50" relative="1" as="geometry">
            <mxPoint x="920" y="450" as="sourcePoint" />
            <mxPoint x="1090" y="470" as="targetPoint" />
            <Array as="points">
              <mxPoint x="1000" y="470" />
              <mxPoint x="1090" y="470" />
            </Array>
          </mxGeometry>
        </mxCell>
        <mxCell id="aQ3WHBYTqEkDXHbV2RrZ-17" value="get next question" style="text;html=1;strokeColor=none;fillColor=none;align=center;verticalAlign=middle;whiteSpace=wrap;rounded=0;" parent="1" vertex="1">
          <mxGeometry x="992.5" y="470" width="105" height="30" as="geometry" />
        </mxCell>
        <mxCell id="aQ3WHBYTqEkDXHbV2RrZ-26" style="edgeStyle=orthogonalEdgeStyle;rounded=0;orthogonalLoop=1;jettySize=auto;html=1;exitX=0;exitY=0;exitDx=0;exitDy=0;entryX=0.939;entryY=0.313;entryDx=0;entryDy=0;entryPerimeter=0;" parent="1" source="aQ3WHBYTqEkDXHbV2RrZ-18" target="aQ3WHBYTqEkDXHbV2RrZ-1" edge="1">
          <mxGeometry relative="1" as="geometry" />
        </mxCell>
        <mxCell id="aQ3WHBYTqEkDXHbV2RrZ-18" value="FINISHED" style="ellipse;whiteSpace=wrap;html=1;aspect=fixed;" parent="1" vertex="1">
          <mxGeometry x="1230" y="170" width="80" height="80" as="geometry" />
        </mxCell>
        <mxCell id="aQ3WHBYTqEkDXHbV2RrZ-19" value="" style="endArrow=classic;html=1;rounded=0;exitX=0.942;exitY=0.294;exitDx=0;exitDy=0;exitPerimeter=0;" parent="1" source="aQ3WHBYTqEkDXHbV2RrZ-13" target="aQ3WHBYTqEkDXHbV2RrZ-18" edge="1">
          <mxGeometry width="50" height="50" relative="1" as="geometry">
            <mxPoint x="1100" y="330" as="sourcePoint" />
            <mxPoint x="1150" y="280" as="targetPoint" />
          </mxGeometry>
        </mxCell>
        <mxCell id="aQ3WHBYTqEkDXHbV2RrZ-20" value="get next question when reach max question" style="text;html=1;strokeColor=none;fillColor=none;align=center;verticalAlign=middle;whiteSpace=wrap;rounded=0;rotation=-45;" parent="1" vertex="1">
          <mxGeometry x="1110" y="300" width="140" height="30" as="geometry" />
        </mxCell>
        <mxCell id="aQ3WHBYTqEkDXHbV2RrZ-22" value="" style="endArrow=classic;html=1;rounded=0;entryX=0.717;entryY=0.062;entryDx=0;entryDy=0;entryPerimeter=0;exitX=0.057;exitY=0.247;exitDx=0;exitDy=0;exitPerimeter=0;" parent="1" source="aQ3WHBYTqEkDXHbV2RrZ-18" target="aQ3WHBYTqEkDXHbV2RrZ-2" edge="1">
          <mxGeometry width="50" height="50" relative="1" as="geometry">
            <mxPoint x="1230" y="150" as="sourcePoint" />
            <mxPoint x="880" y="150" as="targetPoint" />
          </mxGeometry>
        </mxCell>
        <mxCell id="aQ3WHBYTqEkDXHbV2RrZ-23" value="user leave room" style="text;html=1;strokeColor=none;fillColor=none;align=center;verticalAlign=middle;whiteSpace=wrap;rounded=0;rotation=-10;" parent="1" vertex="1">
          <mxGeometry x="810" y="220" width="120" height="30" as="geometry" />
        </mxCell>
        <mxCell id="aQ3WHBYTqEkDXHbV2RrZ-24" value="" style="endArrow=classic;html=1;rounded=0;entryX=1;entryY=0;entryDx=0;entryDy=0;exitX=-0.022;exitY=0.633;exitDx=0;exitDy=0;exitPerimeter=0;" parent="1" source="aQ3WHBYTqEkDXHbV2RrZ-18" target="aQ3WHBYTqEkDXHbV2RrZ-13" edge="1">
          <mxGeometry width="50" height="50" relative="1" as="geometry">
            <mxPoint x="1050" y="300" as="sourcePoint" />
            <mxPoint x="1100" y="250" as="targetPoint" />
          </mxGeometry>
        </mxCell>
        <mxCell id="aQ3WHBYTqEkDXHbV2RrZ-25" value="owner start room again" style="text;html=1;strokeColor=none;fillColor=none;align=center;verticalAlign=middle;whiteSpace=wrap;rounded=0;rotation=-45;" parent="1" vertex="1">
          <mxGeometry x="1070" y="250" width="140" height="30" as="geometry" />
        </mxCell>
        <mxCell id="aQ3WHBYTqEkDXHbV2RrZ-27" value="owner leave room" style="text;html=1;strokeColor=none;fillColor=none;align=center;verticalAlign=middle;whiteSpace=wrap;rounded=0;" parent="1" vertex="1">
          <mxGeometry x="630" y="130" width="230" height="40" as="geometry" />
        </mxCell>
        <mxCell id="2tcdIio_76oewKqh8NrU-1" value="PENDING" style="ellipse;whiteSpace=wrap;html=1;aspect=fixed;" vertex="1" parent="1">
          <mxGeometry x="385" y="-10" width="80" height="80" as="geometry" />
        </mxCell>
        <mxCell id="2tcdIio_76oewKqh8NrU-2" value="" style="endArrow=classic;html=1;rounded=0;entryX=0;entryY=0.5;entryDx=0;entryDy=0;exitX=0.352;exitY=0.032;exitDx=0;exitDy=0;exitPerimeter=0;" edge="1" parent="1" source="aQ3WHBYTqEkDXHbV2RrZ-1" target="2tcdIio_76oewKqh8NrU-1">
          <mxGeometry width="50" height="50" relative="1" as="geometry">
            <mxPoint x="760" y="240" as="sourcePoint" />
            <mxPoint x="810" y="190" as="targetPoint" />
          </mxGeometry>
        </mxCell>
        <mxCell id="2tcdIio_76oewKqh8NrU-3" value="create training room" style="text;html=1;align=center;verticalAlign=middle;resizable=0;points=[];autosize=1;strokeColor=none;fillColor=none;rotation=-45;" vertex="1" parent="1">
          <mxGeometry x="240" y="60" width="130" height="30" as="geometry" />
        </mxCell>
        <mxCell id="2tcdIio_76oewKqh8NrU-4" value="" style="endArrow=classic;html=1;rounded=0;entryX=0.8;entryY=0.088;entryDx=0;entryDy=0;entryPerimeter=0;exitX=0.24;exitY=0.94;exitDx=0;exitDy=0;exitPerimeter=0;" edge="1" parent="1" source="2tcdIio_76oewKqh8NrU-1" target="aQ3WHBYTqEkDXHbV2RrZ-1">
          <mxGeometry width="50" height="50" relative="1" as="geometry">
            <mxPoint x="760" y="240" as="sourcePoint" />
            <mxPoint x="810" y="190" as="targetPoint" />
          </mxGeometry>
        </mxCell>
        <mxCell id="2tcdIio_76oewKqh8NrU-5" value="leave training room" style="text;html=1;align=center;verticalAlign=middle;resizable=0;points=[];autosize=1;strokeColor=none;fillColor=none;rotation=-45;" vertex="1" parent="1">
          <mxGeometry x="295" y="110" width="130" height="30" as="geometry" />
        </mxCell>
        <mxCell id="2tcdIio_76oewKqh8NrU-6" value="START" style="ellipse;whiteSpace=wrap;html=1;aspect=fixed;" vertex="1" parent="1">
          <mxGeometry x="890" y="-20" width="80" height="80" as="geometry" />
        </mxCell>
        <mxCell id="2tcdIio_76oewKqh8NrU-7" value="" style="endArrow=classic;html=1;rounded=0;entryX=0;entryY=0.5;entryDx=0;entryDy=0;exitX=1;exitY=0.38;exitDx=0;exitDy=0;exitPerimeter=0;" edge="1" parent="1" source="2tcdIio_76oewKqh8NrU-1" target="2tcdIio_76oewKqh8NrU-6">
          <mxGeometry width="50" height="50" relative="1" as="geometry">
            <mxPoint x="760" y="240" as="sourcePoint" />
            <mxPoint x="810" y="190" as="targetPoint" />
          </mxGeometry>
        </mxCell>
        <mxCell id="2tcdIio_76oewKqh8NrU-8" value="start training" style="edgeLabel;html=1;align=center;verticalAlign=middle;resizable=0;points=[];" vertex="1" connectable="0" parent="2tcdIio_76oewKqh8NrU-7">
          <mxGeometry x="-0.1257" y="4" relative="1" as="geometry">
            <mxPoint y="-8" as="offset" />
          </mxGeometry>
        </mxCell>
        <mxCell id="2tcdIio_76oewKqh8NrU-9" value="" style="endArrow=classic;html=1;rounded=0;entryX=0.39;entryY=0.02;entryDx=0;entryDy=0;exitX=0.965;exitY=0.615;exitDx=0;exitDy=0;exitPerimeter=0;entryPerimeter=0;" edge="1" parent="1" source="2tcdIio_76oewKqh8NrU-6" target="aQ3WHBYTqEkDXHbV2RrZ-18">
          <mxGeometry width="50" height="50" relative="1" as="geometry">
            <mxPoint x="760" y="240" as="sourcePoint" />
            <mxPoint x="810" y="190" as="targetPoint" />
          </mxGeometry>
        </mxCell>
        <mxCell id="2tcdIio_76oewKqh8NrU-10" value="finished and leave room" style="edgeLabel;html=1;align=center;verticalAlign=middle;resizable=0;points=[];rotation=30;" vertex="1" connectable="0" parent="2tcdIio_76oewKqh8NrU-9">
          <mxGeometry x="-0.1463" y="-2" relative="1" as="geometry">
            <mxPoint x="22" y="-12" as="offset" />
          </mxGeometry>
        </mxCell>
        <mxCell id="2tcdIio_76oewKqh8NrU-11" value="" style="endArrow=classic;html=1;rounded=0;entryX=-0.003;entryY=0.65;entryDx=0;entryDy=0;entryPerimeter=0;exitX=0.938;exitY=0.744;exitDx=0;exitDy=0;exitPerimeter=0;" edge="1" parent="1" source="2tcdIio_76oewKqh8NrU-6" target="2tcdIio_76oewKqh8NrU-6">
          <mxGeometry width="50" height="50" relative="1" as="geometry">
            <mxPoint x="740" y="270" as="sourcePoint" />
            <mxPoint x="790" y="220" as="targetPoint" />
            <Array as="points">
              <mxPoint x="965" y="100" />
              <mxPoint x="890" y="100" />
            </Array>
          </mxGeometry>
        </mxCell>
        <mxCell id="2tcdIio_76oewKqh8NrU-12" value="gety next question" style="edgeLabel;html=1;align=center;verticalAlign=middle;resizable=0;points=[];" vertex="1" connectable="0" parent="2tcdIio_76oewKqh8NrU-11">
          <mxGeometry x="-0.1564" y="-1" relative="1" as="geometry">
            <mxPoint x="-10" y="11" as="offset" />
          </mxGeometry>
        </mxCell>
      </root>
    </mxGraphModel>
  </diagram>
</mxfile>
